<?xml version="1.0" encoding="utf-8"?>
<!DOCTYPE svg PUBLIC "-//W3C//DTD SVG 1.1//EN" "http://www.w3.org/Graphics/SVG/1.1/DTD/svg11.dtd">
<svg version="1.1" id="Layer_1" xmlns="http://www.w3.org/2000/svg" xmlns:xlink="http://www.w3.org/1999/xlink" x="0px" y="0px"
	 viewBox="0 0 3505 3508" enable-background="new 0 0 3505 3508" xml:space="preserve">
<g>
	<linearGradient id="SVGID_1_" gradientUnits="userSpaceOnUse" x1="1752.5" y1="3508" x2="1752.5" y2="-7.868130e-008">
		<stop  offset="0" style="stop-color:#195EFF"/>
		<stop  offset="0.3323" style="stop-color:#6291FF"/>
		<stop  offset="1" style="stop-color:#FFFFFF"/>
	</linearGradient>
	<rect fill="url(#SVGID_1_)" width="3505" height="3508"/>
	<path fill="#010101" d="M1735.9969,3156.1333c-1.0648-0.7583-2.038-1.7236-3.209-2.2427
		c-10.0306-4.447-10.327-4.5566-5.9714-13.8416c11.3704-24.238,20.3678-49.3069,25.4481-75.5789
		c15.434-79.8118,12.6219-158.6619-22.6609-232.8411c-52.6738-110.7417-138.5251-182.2163-259.9327-207.9648
		c-27.5001-5.8323-55.5256-6.7874-83.5908-6.1973c-6.5575,0.1377-13.1204,0.0205-18.1357,0.0205
		c-2.0516-1.4377-2.7689-1.7129-3.0952-2.2332c-0.325-0.5181-0.3488-1.2822-0.3489-1.9385
		c-0.0134-111.2703-0.0129-222.5405-0.0129-333.5146c6.6226-4.293,13.4524-2.5605,19.97-2.7573
		c9.9915-0.3018,19.9957-0.1887,29.9945-0.238c4.7067-0.0229,7.3105-2.0979,7.6991-7.0427
		c1.3053-16.6111,2.4749-33.2412,4.2219-49.8083c7.1412-67.718,18.4149-134.5642,39.1274-199.7152
		c20.8041-65.4399,55.0402-122.3513,102.8456-171.499c45.2473-46.5178,95.0376-87.6527,147.5638-125.5023
		c31.3466-22.5878,63.2596-44.4325,95.5066-65.7197c82.9315-54.7463,164.0605-111.9283,240.5101-175.5242
		c60.5784-50.3927,118.2861-103.7764,167.7817-165.3776c85.1265-105.946,137.0437-226.2681,153.4958-361.2849
		c10.0806-82.7286,6.4507-165.0037-13.1838-246.2973c-1.3618-5.6387-4.2625-11.4075-0.8904-17.3769
		c24.9919,25.0393,46.114,53.2736,67.1309,81.5753c35.8433,48.2678,66.1782,99.8852,91.7634,154.2169
		c17.0229,36.1492,31.2585,73.4718,42.9941,111.7103c12.1255,39.509,21.3381,79.7086,27.5542,120.5365
		c8.7395,57.4034,11.5122,115.2083,10.0874,173.2297c-1.0793,43.9745-5.3972,87.6969-11.7571,131.1644
		c-2.2974,15.6995-7.2927,31.0593-11.7461,46.3738c-5.0122,17.2351-10.4668,34.3606-16.3633,51.3134
		c-4.428,12.7302-3.6855,25.0273,1.6401,36.969c14.9041,33.4187,31.8633,65.7192,53.6633,95.2557
		c7.7661,14.4525,16.6279,28.2092,26.7297,41.137c-0.0093-0.0175,0.0088,1.5308,0.0088,1.5308l1.468,0.4689
		c-0.084,0.9281,0.2986,1.584,1.1404,1.9525c-0.2854,2.6925,0.7952,4.5414,3.4233,5.4121
		c17.5056,25.922,35.1077,51.7793,52.4958,77.7799c31.5029,47.1068,61.2214,95.2507,83.905,147.3745
		c9.5806,22.0149,18.2026,44.5137,21.877,68.2832c4.9314,31.9004,4.7622,63.6604-7.5696,94.397
		c-10.3955,25.9097-29.9912,40.7427-56.7168,44.8845c-30.2224,4.6841-60.6008,8.5208-91.4387,7.8628
		c-28.7656-0.6133-56.99-4.886-85.252-9.3838c-5.9075-0.9402-11.8374-1.8992-17.6365-3.3354
		c-18.1836-4.5034-43.3159,4.469-55.7305,26.501c-6.9231,12.2864-12.0837,25.2778-14.5979,39.126
		c-4.7854,26.3557-6.2917,52.9761-3.4868,79.626c3.3459,31.7871,7.4658,63.4929,11.2671,95.2317
		c0.3962,3.3086,1.0286,6.5925,1.333,9.9077c0.4495,4.894-1.5559,7.167-6.7356,7.3906c-5.3237,0.2295-10.6616,0.1748-15.9932,0.1743
		c-57.9932-0.0051-115.9863,0.03-173.9795-0.0625c-28.0339-0.0449-55.8442,2.1155-83.2891,7.9785
		c-12.4216,2.6538-24.4336,6.626-35.1672,13.6367c-22.106,14.439-23.6587,42.0857-3.0925,59.0962
		c5.0637,4.1882,10.8938,7.7844,16.9087,10.4329c31.2212,13.749,59.9871,31.6313,88.0552,50.8337
		c47.8335,32.7253,95.6829,65.4133,139.071,104.063c11.938,10.634,23.344,21.8022,33.0151,34.6226
		c15.6772,20.7817,16.3423,44.6423,1.8145,66.6646c-1.8096,2.7429-3.4856,5.5742-5.2207,8.3613
		c-4.5317,3.3293-9.0662,6.6619-13.5967,9.9915c-2.0525-0.7144-2.9797,0.1895-3.1379,2.1934c0,0-0.5083,0.3296-0.5071,0.3286
		c-2.4714-0.2783-3.9224,0.8557-4.4705,3.2368c-32.261,15.3127-63.551,32.1753-89.0823,57.7966
		c-9.7522,9.7869-19.3394,19.8528-23.3901,33.6689c-2.2532,0.8726-2.8494,2.4746-2.0437,4.6877
		c-1.1382,4.0557-2.2764,8.1111-3.4133,12.1604c-0.147,1.2729-0.2954,2.5525-0.4438,3.8318
		c0.0273,8.0518,0.0549,16.1033,0.082,24.1479c-0.1726,0.4451-0.563,0.9492-0.4712,1.3398c0.1992,0.845,0.645,1.6323,0.99,2.4431
		c-0.7461,9.717,0.9407,19.2285,2.4304,28.7483c-1.6177,32.8486-1.5061,65.7068-0.1135,98.5667
		c-0.8518,8.5271-1.7039,17.0542-2.5535,25.5706c0.0027-0.0105-1.1045,1.1086-1.1045,1.1086l0.7529,1.3828
		c-1.6228,7.7246-3.6489,15.3904-4.791,23.1853c-3.1804,21.7068-15.5122,37.6313-32.334,50.2031
		c-16.8521,12.5938-34.4924,24.1348-53.1042,34.0464c0.0107-0.0078-1.4312-0.4404-1.4312-0.4404l-0.6113,1.4014
		c-44.7837,13.822-90.7705,17.0913-137.2981,15.7231c-6.6084-0.1943-13.2275-0.0342-19.8323-0.0371
		c-0.9158-1.8442-1.9927-2.3611-3.3542-0.3823c-2.9504-0.2148-5.901-0.4297-8.8446-0.644
		c-1.1943-0.1606-2.3953-0.3215-3.5963-0.4822c-5.6379-0.3977-11.276-0.7954-16.9049-1.1926
		c-7.4634-2.1653-14.9868-3.8501-22.8401-2.4167c-4.2263-1.717-8.6179-2.158-13.1174-1.7012
		c-4.7373-1.5483-9.4106-3.6121-14.5938-2.054c-3.2761-0.5088-6.5521-1.0176-9.8147-1.5244c0.0134,0.0015-0.733-0.9077-0.733-0.9077
		l-0.9812,0.6489c-32.5594-6.6106-65.2566-12.6187-97.6366-20.0149c-27.8329-6.3574-55.6301-13.0627-82.7975-22.0623
		C1762.7631,3164.1138,1749.3413,3160.2402,1735.9969,3156.1333z"/>
	<path fill="#82CBFE" d="M1486.1586,1594.8154c1.3619,5.5043,0.6636,9.853-6.0642,10.8108
		C1479.2526,1600.4095,1480.9128,1596.6067,1486.1586,1594.8154z"/>
	<path fill="#010101" d="M1490.0448,368.6151c1.8348,1.8177,3.6696,3.6353,5.5039,5.4543
		C1492.668,373.3072,1489.7167,372.6154,1490.0448,368.6151z"/>
	<path fill="#010101" d="M1599.1566,481.5708c3.9841,1.4659,4.5754,5.4339,6.3103,8.559
		C1602.3472,488.0264,1598.7755,486.2554,1599.1566,481.5708z"/>
	<path fill="#010101" d="M1495.1091,373.6454c2.6566,0.2655,4.6923,1.1742,4.5219,4.3677
		C1497.1147,377.6019,1495.4678,376.2904,1495.1091,373.6454z"/>
	<path fill="#0697FE" d="M2646.8672,1744.504c-2.6282-0.8707-3.7087-2.7196-3.4233-5.4121
		C2646.6038,1739.6313,2647.3911,1741.6528,2646.8672,1744.504z"/>
	<path fill="#0697FE" d="M2642.3035,1737.1394l-1.468-0.4689c0,0-0.0181-1.5482-0.0088-1.5308
		c0.009,0.0175,1.4475,0.4866,1.4475,0.4866L2642.3035,1737.1394z"/>
	<linearGradient id="SVGID_2_" gradientUnits="userSpaceOnUse" x1="1490.2502" y1="3342.7529" x2="1490.2502" y2="165.2471">
		<stop  offset="0" style="stop-color:#FFFFFF"/>
		<stop  offset="0.1768" style="stop-color:#CFCEFF"/>
		<stop  offset="0.3413" style="stop-color:#A9A7FF"/>
		<stop  offset="0.4726" style="stop-color:#9290FF"/>
		<stop  offset="0.5541" style="stop-color:#8987FF"/>
		<stop  offset="0.5892" style="stop-color:#777FFF"/>
		<stop  offset="0.6668" style="stop-color:#5570FF"/>
		<stop  offset="0.7462" style="stop-color:#3B65FF"/>
		<stop  offset="0.8271" style="stop-color:#285DFF"/>
		<stop  offset="0.9105" style="stop-color:#1D58FF"/>
		<stop  offset="1" style="stop-color:#1956FF"/>
	</linearGradient>
	<path fill="url(#SVGID_2_)" stroke="#000000" stroke-miterlimit="10" d="M951.6174,281.5343
		c8.0557,1.7553,14.0252-3.3041,20.4092-6.5486c24.9335-12.6718,50.3109-24.2695,76.2974-34.6781
		c45.1497-18.0842,91.3525-32.5669,138.8524-42.9388c30.4741-6.6542,61.004-12.7853,92.0417-16.5853
		c23.7109-2.903,47.4769-5.3229,71.1383-8.2698c22.6224-2.8175,45.1151-2.8253,67.6873-3.2767
		c23.9261-0.4785,47.6563-5.8524,71.6515-3.3102c34.4789,3.6529,69.1263,2.3204,103.6404,4.1577
		c27.1425,1.4449,54.3042,4.1256,81.212,7.9736c33.4825,4.7882,66.7976,10.8972,100.0303,17.2454
		c41.2054,7.8712,81.2687,20.0317,120.9576,33.5647c78.1881,26.6605,150.0192,65.2105,215.5436,115.3422
		c28.0708,21.4763,52.7732,46.8089,77.3643,72.1347c53.3606,54.9554,96.2668,117.2145,127.4939,187.0996
		c20.677,46.2751,35.2505,94.6869,43.8479,144.77c4.7266,27.5334,8.1614,55.1351,8.5808,83.1732
		c0.2373,15.8828,5.1721,31.8525,2.5273,47.6636c-4.2949,25.676-2.7644,51.6454-6.1758,77.4453
		c-6.8313,51.6702-18.0007,102.0907-35.8083,150.9802c-12.2993,33.7668-26.9438,66.4305-44.251,98.1252
		c-20.5103,37.5604-44.4893,72.5669-70.4424,106.3367c-10.5168,13.6843-21.9478,26.7786-33.9517,39.1842
		c-23.6292,24.4192-47.1238,49.0757-72.2188,71.9385c-24.5381,22.3551-49.2651,44.5659-75.3362,65.2819
		c-29.1536,23.1652-58.5612,45.9396-88.4977,68.0767c-46.0121,34.0248-93.077,66.5193-140.9875,97.7816
		c-47.37,30.9095-93.5875,63.4276-138.4332,97.8809c-44.4766,34.1696-85.0306,72.7502-122.5513,114.2451
		c-35.6157,39.3881-61.2072,85.2157-78.9597,135.3727c-14.0137,39.5929-24.1086,80.182-31.494,121.4633
		c-4.0902,22.8625-8.1326,45.759-11.186,68.7742c-2.4436,18.4187-3.3892,37.0378-4.9359,55.573
		c-0.3322,3.979-0.1339,8.0132-0.634,11.9646c-0.8306,6.561-3.8531,10.1726-10.1396,10.2913
		c-20.6442,0.3899-41.2993,0.3242-61.9491,0.2144c-4.5059-0.0239-7.5439-2.7864-7.9196-7.3914
		c-0.4326-5.3025-0.463-10.6489-0.4474-15.9753c0.1271-43.3142,0.3778-86.6282,0.3909-129.9424
		c0.002-6.4495,2.2516-13.4126-2.9091-19.1431c0.2452-3.8831,0.491-7.7673,0.7345-11.6401
		c2.7941-0.6584,5.0085-2.2908,5.0624-5.2041c0.2429-13.1484,0.2909-26.3018,0.2188-39.4523
		c-0.0057-1.0284-1.4746-2.0488-2.2634-3.0729c0.3296-4.089,0.6592-8.1781,0.9865-12.2556
		c3.8679-0.8293,5.4153-3.6348,5.4554-7.1833c0.2634-23.2524,4.6627-45.9894,7.9988-68.8928
		c4.6871-32.1803,12.1073-63.6598,22.1019-94.5399c9.9972-30.8884,22.1714-60.964,34.9762-90.7838
		c1.525-3.5515,4.2367-7.0424,0.1975-10.6799c2.2537-4.7396,4.5073-9.4794,6.7581-14.2064
		c8.9645-7.6555,11.2617-12.7751,11.4083-25.4192c16.5594-36.9832,34.8392-73.1042,54.4036-108.5721
		c6.7278-0.9578,7.4261-5.3065,6.0642-10.8108c35.5709-63.2262,69.7788-127.1488,100.309-193.0077
		c23.2311-50.1132,45.2163-100.6851,62.681-153.1631c17.2848-51.9374,28.1708-105.1748,35.5997-159.3536
		c12.1697-88.7531,14.2434-177.9321,10.4229-267.1325c-3.481-81.2729-15.0398-161.5387-42.4166-238.8203
		c-10.2588-28.9594-23.4137-56.5121-38.187-83.3553c-2.1825-3.9658-3.8223-8.6513-9.1006-9.8531
		c-1.7349-3.1251-2.3262-7.0931-6.3103-8.559c0,0,0.4121,0.395,0.4121,0.3951c-0.6107-1.8434-0.828-3.9596-1.8893-5.4908
		c-25.5006-36.7919-55.8909-68.9675-91.3051-96.379c-2.1344-1.652-4.2882-3.0618-7.1611-2.554c0,0,0.4176,0.4716,0.4177,0.4709
		c0.1704-3.1935-1.8652-4.1021-4.5219-4.3677c0,0,0.4392,0.4254,0.4396,0.4241c-1.8344-1.8189-3.6691-3.6366-5.5039-5.4543
		c-7.5813-9.7854-18.9204-14.269-29.1287-20.1857c-37.9305-21.9844-78.8424-34.7482-122.3635-40.3004
		c-19.2764-2.4592-38.4698-3.8506-57.7428-2.8614c-62.9102,3.2289-122.2385,18.4832-175.0476,54.3454
		c-23.8585,16.2022-45.4005,34.9624-61.5144,59.1974c-14.0562,21.1404-21.6848,44.1526-18.8048,69.9187
		c1.5653,14.0041,5.2795,27.5236,10.764,40.3949c8.3478,19.591,17.1874,38.9169,27.4885,57.6744
		c27.9158,50.8322,54.254,102.5291,72.8617,157.6475c13.8683,41.0803,24.1699,82.8999,26.4858,126.6338
		c1.673,31.5916-0.8407,62.4083-8.8572,92.8315c-9.5048,36.0723-27.1624,67.9969-51.7487,95.8339
		c-32.953,37.3099-73.1417,63.6631-121.423,77.0471c-15.4134,4.2728-30.934,7.7212-47.0242,8.3962
		c-9.288,0.3898-18.5505,2.5862-27.802,2.4495c-61.2396-0.9047-118.6761-14.8911-169.2659-51.1023
		c-56.1517-40.1925-94.22-93.2783-113.42-159.7753c-12.5264-43.3837-15.9696-87.7428-14.2651-132.6028
		c4.7684-125.5014,48.4041-236.4693,125.9575-334.5681c55.4777-70.1751,121.2227-128.9376,197.1553-176.2479
		c8.3708,0.2068,15.8649-1.0658,18.1656-10.9512L951.6174,281.5343z M1744.891,2909.1638
		c-12.2349-70.762-47.3633-129.2681-96.2023-180.2834c-17.4841-18.2634-37.7159-33.4709-58.7278-47.6973
		c-50.3948-34.1201-106.7764-50.5513-166.5547-55.3625c-25.0079-2.0127-50.2952-1.1777-75.642,2.2986
		c-29.2467,4.0115-57.2397,11.251-84.7074,21.4258c-36.0084,13.3389-68.1399,33.6145-96.6656,58.7327
		c-30.9877,27.2859-58.6329,57.7578-79.4735,94.1321c-26.2654,45.8425-42.0854,94.4719-44.8114,147.2979
		c-0.2729,5.2898-0.676,10.6411-1.7655,15.8064c-2.2357,10.5989-2.1238,21.0918-0.2861,31.7104
		c1.0156,5.8682,1.943,11.8357,2.0162,17.7693c0.3906,31.6765,8.5178,61.8457,18.7594,91.3589
		c11.4109,32.8826,28.0634,63.3054,49.3174,90.9016c12.9591,16.8259,26.0333,33.7703,41.9349,47.9919
		c11.8644,10.6108,24.6241,20.238,37.1726,30.0637c39.6095,31.0154,85.3765,48.0759,133.8125,59.3828
		c22.1829,5.1785,45.0094,3.1912,67.2651,7.3958c7.0371,1.3291,14.5538,0.5588,21.8035-1.3716
		c4.4391-1.1821,9.2229-1.7368,13.813-1.5601c14.1072,0.5427,27.8574-1.8005,41.5348-4.606
		c28.094-5.7622,55.4431-13.8267,81.3507-26.4514c53.073-25.863,96.7061-63.1018,132.5305-109.7124
		c18.755-24.4019,34.3341-50.8828,45.4753-79.4917c17.0399-43.7563,25.5551-89.363,25.1692-141.176
		C1752.9379,2957.675,1749.0903,2933.4519,1744.891,2909.1638z"/>
</g>
</svg>
